<svg xmlns="http://www.w3.org/2000/svg" version="1.1" xmlns:xlink="http://www.w3.org/1999/xlink" xmlns:svgjs="http://svgjs.dev/svgjs" width="192" height="192"><svg width="192" height="192" viewBox="0 0 192 192" fill="none" xmlns="http://www.w3.org/2000/svg">
<rect width="192" height="192" fill="#D9D9D9"></rect>
<path d="M32.4091 139.818V54.1818H63.7727V67.8182H50.6818V126.182H63.7727V139.818H32.4091ZM88.8722 94.5455V124H70.054V71.6364H87.9176V81.5909H88.4631C89.5994 78.2727 91.5994 75.6705 94.4631 73.7841C97.3494 71.8977 100.713 70.9545 104.554 70.9545C108.259 70.9545 111.474 71.8068 114.202 73.5114C116.952 75.1932 119.077 77.5114 120.577 80.4659C122.099 83.4205 122.849 86.7955 122.827 90.5909V124H104.009V94.5455C104.031 91.9545 103.372 89.9205 102.031 88.4432C100.713 86.9659 98.8722 86.2273 96.5085 86.2273C94.9631 86.2273 93.6108 86.5682 92.4517 87.25C91.3153 87.9091 90.4403 88.8636 89.8267 90.1136C89.2131 91.3409 88.8949 92.8182 88.8722 94.5455ZM160.207 54.1818V139.818H128.844V126.182H141.935V67.8182H128.844V54.1818H160.207Z" fill="#F52626"></path>
</svg><style>@media (prefers-color-scheme: light) { :root { filter: none; } }
@media (prefers-color-scheme: dark) { :root { filter: none; } }
</style></svg>