<svg width="1062" height="38" viewBox="0 0 1062 38" fill="none" xmlns="http://www.w3.org/2000/svg">
<path d="M1061 0H1V37H1061V0Z" fill="white"/>
<path d="M1 37H1061" stroke="#D9D9D9" stroke-width="2" stroke-linecap="square"/>
<mask id="mask0_31_4668" style="mask-type:luminance" maskUnits="userSpaceOnUse" x="17" y="11" width="16" height="17">
<path d="M33 11.5H17V27.5H33V11.5Z" fill="white"/>
</mask>
<g mask="url(#mask0_31_4668)">
<path d="M28 10.5C31.3137 10.5 34 13.1863 34 16.5V22.5C34 25.8137 31.3137 28.5 28 28.5H22C18.6863 28.5 16 25.8137 16 22.5V16.5C16 13.1863 18.6863 10.5 22 10.5H28Z" fill="white" stroke="#797979" stroke-width="2"/>
<path d="M21.1761 19.6591C20.4602 19.6591 19.8438 19.4901 19.3267 19.152C18.8097 18.8139 18.4119 18.3482 18.1335 17.755C17.8551 17.1617 17.7159 16.4839 17.7159 15.7216C17.7159 14.946 17.8584 14.2616 18.1435 13.6683C18.4318 13.0717 18.8329 12.6061 19.3466 12.2713C19.8636 11.9332 20.4669 11.7642 21.1562 11.7642C21.6932 11.7642 22.1771 11.8636 22.608 12.0625C23.0388 12.2614 23.3918 12.5398 23.6669 12.8977C23.942 13.2557 24.1127 13.6733 24.179 14.1506H23.0057C22.9162 13.8026 22.7173 13.4943 22.4091 13.2259C22.1042 12.9541 21.6932 12.8182 21.1761 12.8182C20.7188 12.8182 20.3177 12.9375 19.973 13.1761C19.6316 13.4115 19.3648 13.7446 19.1726 14.1754C18.9837 14.603 18.8892 15.1051 18.8892 15.6818C18.8892 16.2718 18.982 16.7855 19.1676 17.223C19.3565 17.6605 19.6217 18.0002 19.9631 18.2422C20.3078 18.4841 20.7121 18.6051 21.1761 18.6051C21.4811 18.6051 21.7578 18.5521 22.0064 18.446C22.255 18.34 22.4654 18.1875 22.6378 17.9886C22.8101 17.7898 22.9328 17.5511 23.0057 17.2727H24.179C24.1127 17.7235 23.9486 18.1295 23.6868 18.4908C23.4283 18.8487 23.0852 19.1338 22.6577 19.3459C22.2334 19.5547 21.7396 19.6591 21.1761 19.6591ZM27.0675 14.9062V19.5H25.8942V9.31818H27.0675V13.0568H27.1669C27.3459 12.6624 27.6143 12.3492 27.9723 12.1172C28.3336 11.8819 28.8142 11.7642 29.4141 11.7642C29.9344 11.7642 30.3902 11.8686 30.7812 12.0774C31.1723 12.2829 31.4756 12.5994 31.6911 13.027C31.9098 13.4512 32.0192 13.9915 32.0192 14.6477V19.5H30.8459V14.7273C30.8459 14.1207 30.6884 13.6518 30.3736 13.3203C30.062 12.9856 29.6295 12.8182 29.076 12.8182C28.6915 12.8182 28.3468 12.8994 28.0419 13.0618C27.7403 13.2242 27.5017 13.4612 27.326 13.7727C27.1536 14.0843 27.0675 14.4621 27.0675 14.9062ZM37.3674 19.6591C36.6316 19.6591 35.9969 19.4967 35.4632 19.1719C34.9329 18.8438 34.5236 18.3864 34.2353 17.7997C33.9502 17.2098 33.8077 16.5237 33.8077 15.7415C33.8077 14.9593 33.9502 14.2699 34.2353 13.6733C34.5236 13.0734 34.9247 12.6061 35.4384 12.2713C35.9554 11.9332 36.5587 11.7642 37.248 11.7642C37.6458 11.7642 38.0385 11.8305 38.4263 11.9631C38.8141 12.0956 39.1671 12.3111 39.4853 12.6094C39.8034 12.9044 40.057 13.2955 40.2459 13.7827C40.4348 14.2699 40.5293 14.8698 40.5293 15.5824V16.0795H34.6429V15.0653H39.3361C39.3361 14.6345 39.2499 14.25 39.0776 13.9119C38.9086 13.5739 38.6666 13.3071 38.3517 13.1115C38.0402 12.916 37.6723 12.8182 37.248 12.8182C36.7807 12.8182 36.3764 12.9342 36.035 13.1662C35.6969 13.3949 35.4367 13.6932 35.2544 14.0611C35.0721 14.429 34.981 14.8234 34.981 15.2443V15.9205C34.981 16.4972 35.0804 16.986 35.2793 17.3871C35.4815 17.7848 35.7615 18.0881 36.1195 18.2969C36.4775 18.5024 36.8934 18.6051 37.3674 18.6051C37.6756 18.6051 37.954 18.562 38.2026 18.4759C38.4545 18.3864 38.6716 18.2538 38.8539 18.0781C39.0362 17.8991 39.177 17.6771 39.2765 17.4119L40.41 17.7301C40.2907 18.1146 40.0901 18.4527 39.8084 18.7443C39.5267 19.0327 39.1787 19.258 38.7644 19.4205C38.3501 19.5795 37.8844 19.6591 37.3674 19.6591ZM45.4164 19.6591C44.7005 19.6591 44.084 19.4901 43.5669 19.152C43.0499 18.8139 42.6522 18.3482 42.3738 17.755C42.0953 17.1617 41.9561 16.4839 41.9561 15.7216C41.9561 14.946 42.0987 14.2616 42.3837 13.6683C42.6721 13.0717 43.0731 12.6061 43.5868 12.2713C44.1039 11.9332 44.7071 11.7642 45.3965 11.7642C45.9334 11.7642 46.4173 11.8636 46.8482 12.0625C47.2791 12.2614 47.632 12.5398 47.9071 12.8977C48.1822 13.2557 48.3529 13.6733 48.4192 14.1506H47.2459C47.1564 13.8026 46.9576 13.4943 46.6493 13.2259C46.3444 12.9541 45.9334 12.8182 45.4164 12.8182C44.959 12.8182 44.5579 12.9375 44.2132 13.1761C43.8719 13.4115 43.6051 13.7446 43.4128 14.1754C43.2239 14.603 43.1294 15.1051 43.1294 15.6818C43.1294 16.2718 43.2222 16.7855 43.4078 17.223C43.5968 17.6605 43.8619 18.0002 44.2033 18.2422C44.548 18.4841 44.9524 18.6051 45.4164 18.6051C45.7213 18.6051 45.998 18.5521 46.2466 18.446C46.4952 18.34 46.7057 18.1875 46.878 17.9886C47.0504 17.7898 47.173 17.5511 47.2459 17.2727H48.4192C48.3529 17.7235 48.1889 18.1295 47.927 18.4908C47.6685 18.8487 47.3255 19.1338 46.8979 19.3459C46.4737 19.5547 45.9798 19.6591 45.4164 19.6591ZM51.2282 16.7159L51.2083 15.2642H51.4469L54.7878 11.8636H56.2395L52.6799 15.4631H52.5804L51.2282 16.7159ZM50.1344 19.5V9.31818H51.3077V19.5H50.1344ZM54.9867 19.5L52.0037 15.7216L52.839 14.9062L56.4782 19.5H54.9867ZM57.9087 19.5V9.31818H59.082V13.0767H59.1815C59.2676 12.9441 59.387 12.7751 59.5394 12.5696C59.6952 12.3608 59.9173 12.1752 60.2056 12.0128C60.4973 11.8471 60.8917 11.7642 61.3888 11.7642C62.0318 11.7642 62.5986 11.925 63.0891 12.2464C63.5797 12.5679 63.9625 13.0237 64.2376 13.6136C64.5127 14.2036 64.6502 14.8996 64.6502 15.7017C64.6502 16.5104 64.5127 17.2114 64.2376 17.8047C63.9625 18.3946 63.5813 18.852 63.0941 19.1768C62.6069 19.4983 62.0451 19.6591 61.4087 19.6591C60.9182 19.6591 60.5254 19.5779 60.2305 19.4155C59.9355 19.2498 59.7085 19.0625 59.5494 18.8537C59.3903 18.6416 59.2676 18.4659 59.1815 18.3267H59.0423V19.5H57.9087ZM59.0621 15.6818C59.0621 16.2585 59.1467 16.7673 59.3157 17.2081C59.4847 17.6456 59.7317 17.9886 60.0565 18.2372C60.3813 18.4825 60.779 18.6051 61.2496 18.6051C61.7402 18.6051 62.1495 18.4759 62.4776 18.2173C62.8091 17.9555 63.0576 17.6042 63.2234 17.1634C63.3924 16.7192 63.4769 16.2254 63.4769 15.6818C63.4769 15.1449 63.3941 14.661 63.2283 14.2301C63.0659 13.7959 62.819 13.4529 62.4876 13.201C62.1594 12.9458 61.7468 12.8182 61.2496 12.8182C60.7724 12.8182 60.3713 12.9392 60.0465 13.1811C59.7217 13.4197 59.4764 13.7545 59.3107 14.1854C59.145 14.6129 59.0621 15.1117 59.0621 15.6818ZM69.5472 19.6591C68.8578 19.6591 68.253 19.495 67.7326 19.1669C67.2156 18.8388 66.8112 18.3797 66.5195 17.7898C66.2312 17.1998 66.087 16.5104 66.087 15.7216C66.087 14.9261 66.2312 14.2318 66.5195 13.6385C66.8112 13.0452 67.2156 12.5845 67.7326 12.2564C68.253 11.9283 68.8578 11.7642 69.5472 11.7642C70.2366 11.7642 70.8398 11.9283 71.3569 12.2564C71.8772 12.5845 72.2816 13.0452 72.57 13.6385C72.8616 14.2318 73.0075 14.9261 73.0075 15.7216C73.0075 16.5104 72.8616 17.1998 72.57 17.7898C72.2816 18.3797 71.8772 18.8388 71.3569 19.1669C70.8398 19.495 70.2366 19.6591 69.5472 19.6591ZM69.5472 18.6051C70.0709 18.6051 70.5018 18.4709 70.8398 18.2024C71.1779 17.9339 71.4281 17.581 71.5906 17.1435C71.753 16.706 71.8342 16.232 71.8342 15.7216C71.8342 15.2112 71.753 14.7356 71.5906 14.2947C71.4281 13.8539 71.1779 13.4976 70.8398 13.2259C70.5018 12.9541 70.0709 12.8182 69.5472 12.8182C69.0236 12.8182 68.5927 12.9541 68.2546 13.2259C67.9165 13.4976 67.6663 13.8539 67.5039 14.2947C67.3415 14.7356 67.2603 15.2112 67.2603 15.7216C67.2603 16.232 67.3415 16.706 67.5039 17.1435C67.6663 17.581 67.9165 17.9339 68.2546 18.2024C68.5927 18.4709 69.0236 18.6051 69.5472 18.6051ZM75.359 11.8636L77.1886 14.9858L79.0181 11.8636H80.3704L77.9045 15.6818L80.3704 19.5H79.0181L77.1886 16.5369L75.359 19.5H74.0067L76.4329 15.6818L74.0067 11.8636H75.359ZM86.1051 14.5881V15.6818H81.6506V14.5881H86.1051ZM93.5787 13.5739L92.5247 13.8722C92.4584 13.6965 92.3606 13.5258 92.2314 13.3601C92.1054 13.1911 91.9331 13.0518 91.7143 12.9425C91.4956 12.8331 91.2155 12.7784 90.8741 12.7784C90.4068 12.7784 90.0173 12.8861 89.7058 13.1016C89.3975 13.3137 89.2434 13.5838 89.2434 13.9119C89.2434 14.2036 89.3495 14.4339 89.5616 14.603C89.7737 14.772 90.1052 14.9129 90.5559 15.0256L91.6895 15.304C92.3722 15.4697 92.881 15.7232 93.2157 16.0646C93.5505 16.4027 93.7179 16.8385 93.7179 17.3722C93.7179 17.8097 93.5919 18.2008 93.34 18.5455C93.0914 18.8902 92.7434 19.1619 92.296 19.3608C91.8485 19.5597 91.3282 19.6591 90.7349 19.6591C89.956 19.6591 89.3114 19.4901 88.801 19.152C88.2905 18.8139 87.9674 18.3201 87.8315 17.6705L88.9451 17.392C89.0512 17.803 89.2517 18.1113 89.5467 18.3168C89.845 18.5223 90.2344 18.625 90.715 18.625C91.2619 18.625 91.6961 18.509 92.0176 18.277C92.3424 18.0417 92.5048 17.7599 92.5048 17.4318C92.5048 17.1667 92.412 16.9446 92.2264 16.7656C92.0408 16.5833 91.7557 16.4474 91.3713 16.358L90.0985 16.0597C89.3992 15.8939 88.8855 15.6371 88.5574 15.2891C88.2325 14.9377 88.0701 14.4986 88.0701 13.9716C88.0701 13.5407 88.1911 13.1596 88.4331 12.8281C88.6783 12.4967 89.0114 12.2365 89.4324 12.0476C89.8566 11.8587 90.3372 11.7642 90.8741 11.7642C91.6298 11.7642 92.2231 11.9299 92.6539 12.2614C93.0881 12.5928 93.3964 13.0303 93.5787 13.5739ZM98.6857 19.6591C97.9499 19.6591 97.3152 19.4967 96.7816 19.1719C96.2513 18.8438 95.842 18.3864 95.5536 17.7997C95.2686 17.2098 95.1261 16.5237 95.1261 15.7415C95.1261 14.9593 95.2686 14.2699 95.5536 13.6733C95.842 13.0734 96.243 12.6061 96.7567 12.2713C97.2738 11.9332 97.877 11.7642 98.5664 11.7642C98.9641 11.7642 99.3569 11.8305 99.7447 11.9631C100.132 12.0956 100.485 12.3111 100.804 12.6094C101.122 12.9044 101.375 13.2955 101.564 13.7827C101.753 14.2699 101.848 14.8698 101.848 15.5824V16.0795H95.9613V15.0653H100.654C100.654 14.6345 100.568 14.25 100.396 13.9119C100.227 13.5739 99.985 13.3071 99.6701 13.1115C99.3585 12.916 98.9906 12.8182 98.5664 12.8182C98.0991 12.8182 97.6947 12.9342 97.3533 13.1662C97.0153 13.3949 96.7551 13.6932 96.5728 14.0611C96.3905 14.429 96.2994 14.8234 96.2994 15.2443V15.9205C96.2994 16.4972 96.3988 16.986 96.5977 17.3871C96.7998 17.7848 97.0799 18.0881 97.4379 18.2969C97.7958 18.5024 98.2118 18.6051 98.6857 18.6051C98.994 18.6051 99.2724 18.562 99.521 18.4759C99.7728 18.3864 99.9899 18.2538 100.172 18.0781C100.355 17.8991 100.495 17.6771 100.595 17.4119L101.728 17.7301C101.609 18.1146 101.408 18.4527 101.127 18.7443C100.845 19.0327 100.497 19.258 100.083 19.4205C99.6684 19.5795 99.2028 19.6591 98.6857 19.6591ZM104.806 9.31818V19.5H103.632V9.31818H104.806ZM110.156 19.6591C109.421 19.6591 108.786 19.4967 108.252 19.1719C107.722 18.8438 107.313 18.3864 107.024 17.7997C106.739 17.2098 106.597 16.5237 106.597 15.7415C106.597 14.9593 106.739 14.2699 107.024 13.6733C107.313 13.0734 107.714 12.6061 108.227 12.2713C108.744 11.9332 109.348 11.7642 110.037 11.7642C110.435 11.7642 110.828 11.8305 111.215 11.9631C111.603 12.0956 111.956 12.3111 112.274 12.6094C112.593 12.9044 112.846 13.2955 113.035 13.7827C113.224 14.2699 113.318 14.8698 113.318 15.5824V16.0795H107.432V15.0653H112.125C112.125 14.6345 112.039 14.25 111.867 13.9119C111.698 13.5739 111.456 13.3071 111.141 13.1115C110.829 12.916 110.461 12.8182 110.037 12.8182C109.57 12.8182 109.165 12.9342 108.824 13.1662C108.486 13.3949 108.226 13.6932 108.044 14.0611C107.861 14.429 107.77 14.8234 107.77 15.2443V15.9205C107.77 16.4972 107.869 16.986 108.068 17.3871C108.271 17.7848 108.551 18.0881 108.909 18.2969C109.267 18.5024 109.682 18.6051 110.156 18.6051C110.465 18.6051 110.743 18.562 110.992 18.4759C111.244 18.3864 111.461 18.2538 111.643 18.0781C111.825 17.8991 111.966 17.6771 112.066 17.4119L113.199 17.7301C113.08 18.1146 112.879 18.4527 112.597 18.7443C112.316 19.0327 111.968 19.258 111.553 19.4205C111.139 19.5795 110.673 19.6591 110.156 19.6591ZM118.205 19.6591C117.49 19.6591 116.873 19.4901 116.356 19.152C115.839 18.8139 115.441 18.3482 115.163 17.755C114.884 17.1617 114.745 16.4839 114.745 15.7216C114.745 14.946 114.888 14.2616 115.173 13.6683C115.461 13.0717 115.862 12.6061 116.376 12.2713C116.893 11.9332 117.496 11.7642 118.186 11.7642C118.722 11.7642 119.206 11.8636 119.637 12.0625C120.068 12.2614 120.421 12.5398 120.696 12.8977C120.971 13.2557 121.142 13.6733 121.208 14.1506H120.035C119.945 13.8026 119.747 13.4943 119.438 13.2259C119.133 12.9541 118.722 12.8182 118.205 12.8182C117.748 12.8182 117.347 12.9375 117.002 13.1761C116.661 13.4115 116.394 13.7446 116.202 14.1754C116.013 14.603 115.919 15.1051 115.919 15.6818C115.919 16.2718 116.011 16.7855 116.197 17.223C116.386 17.6605 116.651 18.0002 116.992 18.2422C117.337 18.4841 117.741 18.6051 118.205 18.6051C118.51 18.6051 118.787 18.5521 119.036 18.446C119.284 18.34 119.495 18.1875 119.667 17.9886C119.839 17.7898 119.962 17.5511 120.035 17.2727H121.208C121.142 17.7235 120.978 18.1295 120.716 18.4908C120.458 18.8487 120.115 19.1338 119.687 19.3459C119.263 19.5547 118.769 19.6591 118.205 19.6591ZM126.244 11.8636V12.858H122.287V11.8636H126.244ZM123.441 10.0341H124.614V17.3125C124.614 17.6439 124.662 17.8925 124.758 18.0582C124.857 18.2206 124.983 18.33 125.136 18.3864C125.292 18.4394 125.456 18.4659 125.628 18.4659C125.757 18.4659 125.863 18.4593 125.946 18.446C126.029 18.4295 126.095 18.4162 126.145 18.4062L126.384 19.4602C126.304 19.4901 126.193 19.5199 126.051 19.5497C125.908 19.5829 125.727 19.5994 125.509 19.5994C125.177 19.5994 124.852 19.5282 124.534 19.3857C124.219 19.2431 123.958 19.026 123.749 18.7344C123.543 18.4427 123.441 18.0748 123.441 17.6307V10.0341ZM132.111 14.5881V15.6818H127.656V14.5881H132.111ZM139.585 13.5739L138.531 13.8722C138.464 13.6965 138.366 13.5258 138.237 13.3601C138.111 13.1911 137.939 13.0518 137.72 12.9425C137.501 12.8331 137.221 12.7784 136.88 12.7784C136.413 12.7784 136.023 12.8861 135.712 13.1016C135.403 13.3137 135.249 13.5838 135.249 13.9119C135.249 14.2036 135.355 14.4339 135.567 14.603C135.78 14.772 136.111 14.9129 136.562 15.0256L137.695 15.304C138.378 15.4697 138.887 15.7232 139.222 16.0646C139.556 16.4027 139.724 16.8385 139.724 17.3722C139.724 17.8097 139.598 18.2008 139.346 18.5455C139.097 18.8902 138.749 19.1619 138.302 19.3608C137.854 19.5597 137.334 19.6591 136.741 19.6591C135.962 19.6591 135.317 19.4901 134.807 19.152C134.296 18.8139 133.973 18.3201 133.837 17.6705L134.951 17.392C135.057 17.803 135.258 18.1113 135.553 18.3168C135.851 18.5223 136.24 18.625 136.721 18.625C137.268 18.625 137.702 18.509 138.023 18.277C138.348 18.0417 138.511 17.7599 138.511 17.4318C138.511 17.1667 138.418 16.9446 138.232 16.7656C138.047 16.5833 137.762 16.4474 137.377 16.358L136.104 16.0597C135.405 15.8939 134.891 15.6371 134.563 15.2891C134.238 14.9377 134.076 14.4986 134.076 13.9716C134.076 13.5407 134.197 13.1596 134.439 12.8281C134.684 12.4967 135.017 12.2365 135.438 12.0476C135.862 11.8587 136.343 11.7642 136.88 11.7642C137.636 11.7642 138.229 11.9299 138.66 12.2614C139.094 12.5928 139.402 13.0303 139.585 13.5739ZM141.49 19.5V11.8636H142.663V19.5H141.49ZM142.086 10.5909C141.858 10.5909 141.661 10.513 141.495 10.3572C141.332 10.2015 141.251 10.0142 141.251 9.79545C141.251 9.5767 141.332 9.38944 141.495 9.23366C141.661 9.07789 141.858 9 142.086 9C142.315 9 142.511 9.07789 142.673 9.23366C142.839 9.38944 142.922 9.5767 142.922 9.79545C142.922 10.0142 142.839 10.2015 142.673 10.3572C142.511 10.513 142.315 10.5909 142.086 10.5909ZM145.985 14.9062V19.5H144.812V11.8636H145.946V13.0568H146.045C146.224 12.669 146.496 12.3575 146.86 12.1222C147.225 11.8835 147.696 11.7642 148.272 11.7642C148.789 11.7642 149.242 11.8703 149.63 12.0824C150.017 12.2912 150.319 12.6094 150.534 13.0369C150.75 13.4612 150.858 13.9981 150.858 14.6477V19.5H149.684V14.7273C149.684 14.1274 149.529 13.66 149.217 13.3253C148.905 12.9872 148.478 12.8182 147.934 12.8182C147.56 12.8182 147.225 12.8994 146.93 13.0618C146.638 13.2242 146.408 13.4612 146.239 13.7727C146.07 14.0843 145.985 14.4621 145.985 14.9062ZM156.084 22.5227C155.517 22.5227 155.03 22.4498 154.622 22.304C154.215 22.1615 153.875 21.9725 153.603 21.7372C153.335 21.5052 153.121 21.2566 152.962 20.9915L153.896 20.3352C154.003 20.4744 154.137 20.6335 154.299 20.8125C154.462 20.9948 154.684 21.1522 154.965 21.2848C155.25 21.4207 155.623 21.4886 156.084 21.4886C156.7 21.4886 157.209 21.3395 157.61 21.0412C158.011 20.7429 158.212 20.2756 158.212 19.6392V18.0881H158.112C158.026 18.2273 157.904 18.3996 157.744 18.6051C157.589 18.8073 157.363 18.9879 157.068 19.147C156.777 19.3028 156.382 19.3807 155.885 19.3807C155.269 19.3807 154.715 19.2348 154.225 18.9432C153.737 18.6515 153.351 18.2273 153.066 17.6705C152.785 17.1136 152.644 16.4375 152.644 15.642C152.644 14.8598 152.781 14.1787 153.056 13.5987C153.331 13.0154 153.714 12.5646 154.205 12.2464C154.695 11.925 155.262 11.7642 155.905 11.7642C156.402 11.7642 156.797 11.8471 157.088 12.0128C157.383 12.1752 157.609 12.3608 157.764 12.5696C157.923 12.7751 158.046 12.9441 158.132 13.0767H158.252V11.8636H159.385V19.7188C159.385 20.375 159.236 20.9086 158.938 21.3196C158.643 21.7339 158.245 22.0372 157.744 22.2294C157.247 22.425 156.694 22.5227 156.084 22.5227ZM156.044 18.3267C156.515 18.3267 156.913 18.219 157.237 18.0036C157.562 17.7881 157.809 17.4782 157.978 17.0739C158.147 16.6695 158.232 16.1856 158.232 15.6222C158.232 15.072 158.149 14.5864 157.983 14.1655C157.817 13.7446 157.572 13.4148 157.247 13.1761C156.923 12.9375 156.521 12.8182 156.044 12.8182C155.547 12.8182 155.133 12.9441 154.801 13.196C154.473 13.4479 154.226 13.786 154.061 14.2102C153.898 14.6345 153.817 15.1051 153.817 15.6222C153.817 16.1525 153.9 16.6214 154.066 17.0291C154.235 17.4335 154.483 17.7517 154.811 17.9837C155.143 18.2124 155.554 18.3267 156.044 18.3267ZM162.706 9.31818V19.5H161.533V9.31818H162.706ZM168.057 19.6591C167.321 19.6591 166.686 19.4967 166.153 19.1719C165.622 18.8438 165.213 18.3864 164.925 17.7997C164.64 17.2098 164.497 16.5237 164.497 15.7415C164.497 14.9593 164.64 14.2699 164.925 13.6733C165.213 13.0734 165.614 12.6061 166.128 12.2713C166.645 11.9332 167.248 11.7642 167.938 11.7642C168.335 11.7642 168.728 11.8305 169.116 11.9631C169.504 12.0956 169.857 12.3111 170.175 12.6094C170.493 12.9044 170.746 13.2955 170.935 13.7827C171.124 14.2699 171.219 14.8698 171.219 15.5824V16.0795H165.332V15.0653H170.026C170.026 14.6345 169.939 14.25 169.767 13.9119C169.598 13.5739 169.356 13.3071 169.041 13.1115C168.73 12.916 168.362 12.8182 167.938 12.8182C167.47 12.8182 167.066 12.9342 166.724 13.1662C166.386 13.3949 166.126 13.6932 165.944 14.0611C165.762 14.429 165.67 14.8234 165.67 15.2443V15.9205C165.67 16.4972 165.77 16.986 165.969 17.3871C166.171 17.7848 166.451 18.0881 166.809 18.2969C167.167 18.5024 167.583 18.6051 168.057 18.6051C168.365 18.6051 168.643 18.562 168.892 18.4759C169.144 18.3864 169.361 18.2538 169.543 18.0781C169.726 17.8991 169.866 17.6771 169.966 17.4119L171.099 17.7301C170.98 18.1146 170.78 18.4527 170.498 18.7443C170.216 19.0327 169.868 19.258 169.454 19.4205C169.04 19.5795 168.574 19.6591 168.057 19.6591ZM177.379 14.5881V15.6818H172.924V14.5881H177.379ZM179.443 19.5V11.8636H180.577V13.017H180.656C180.795 12.6392 181.047 12.3326 181.412 12.0973C181.776 11.862 182.187 11.7443 182.645 11.7443C182.731 11.7443 182.839 11.746 182.968 11.7493C183.097 11.7526 183.195 11.7576 183.261 11.7642V12.9574C183.221 12.9474 183.13 12.9325 182.988 12.9126C182.849 12.8894 182.701 12.8778 182.545 12.8778C182.174 12.8778 181.843 12.9557 181.551 13.1115C181.263 13.264 181.034 13.4761 180.865 13.7479C180.699 14.0163 180.616 14.3229 180.616 14.6676V19.5H179.443ZM187.621 19.6591C186.885 19.6591 186.251 19.4967 185.717 19.1719C185.187 18.8438 184.778 18.3864 184.489 17.7997C184.204 17.2098 184.062 16.5237 184.062 15.7415C184.062 14.9593 184.204 14.2699 184.489 13.6733C184.778 13.0734 185.179 12.6061 185.692 12.2713C186.209 11.9332 186.813 11.7642 187.502 11.7642C187.9 11.7642 188.292 11.8305 188.68 11.9631C189.068 12.0956 189.421 12.3111 189.739 12.6094C190.057 12.9044 190.311 13.2955 190.5 13.7827C190.689 14.2699 190.783 14.8698 190.783 15.5824V16.0795H184.897V15.0653H189.59C189.59 14.6345 189.504 14.25 189.331 13.9119C189.162 13.5739 188.921 13.3071 188.606 13.1115C188.294 12.916 187.926 12.8182 187.502 12.8182C187.035 12.8182 186.63 12.9342 186.289 13.1662C185.951 13.3949 185.691 13.6932 185.508 14.0611C185.326 14.429 185.235 14.8234 185.235 15.2443V15.9205C185.235 16.4972 185.334 16.986 185.533 17.3871C185.735 17.7848 186.015 18.0881 186.373 18.2969C186.731 18.5024 187.147 18.6051 187.621 18.6051C187.93 18.6051 188.208 18.562 188.456 18.4759C188.708 18.3864 188.925 18.2538 189.108 18.0781C189.29 17.8991 189.431 17.6771 189.53 17.4119L190.664 17.7301C190.545 18.1146 190.344 18.4527 190.062 18.7443C189.781 19.0327 189.433 19.258 189.018 19.4205C188.604 19.5795 188.138 19.6591 187.621 19.6591ZM195.67 19.6591C194.954 19.6591 194.338 19.4901 193.821 19.152C193.304 18.8139 192.906 18.3482 192.628 17.755C192.349 17.1617 192.21 16.4839 192.21 15.7216C192.21 14.946 192.353 14.2616 192.638 13.6683C192.926 13.0717 193.327 12.6061 193.841 12.2713C194.358 11.9332 194.961 11.7642 195.65 11.7642C196.187 11.7642 196.671 11.8636 197.102 12.0625C197.533 12.2614 197.886 12.5398 198.161 12.8977C198.436 13.2557 198.607 13.6733 198.673 14.1506H197.5C197.41 13.8026 197.211 13.4943 196.903 13.2259C196.598 12.9541 196.187 12.8182 195.67 12.8182C195.213 12.8182 194.812 12.9375 194.467 13.1761C194.126 13.4115 193.859 13.7446 193.667 14.1754C193.478 14.603 193.383 15.1051 193.383 15.6818C193.383 16.2718 193.476 16.7855 193.662 17.223C193.851 17.6605 194.116 18.0002 194.457 18.2422C194.802 18.4841 195.206 18.6051 195.67 18.6051C195.975 18.6051 196.252 18.5521 196.501 18.446C196.749 18.34 196.96 18.1875 197.132 17.9886C197.304 17.7898 197.427 17.5511 197.5 17.2727H198.673C198.607 17.7235 198.443 18.1295 198.181 18.4908C197.922 18.8487 197.579 19.1338 197.152 19.3459C196.728 19.5547 196.234 19.6591 195.67 19.6591ZM203.491 19.6591C202.801 19.6591 202.196 19.495 201.676 19.1669C201.159 18.8388 200.755 18.3797 200.463 17.7898C200.175 17.1998 200.03 16.5104 200.03 15.7216C200.03 14.9261 200.175 14.2318 200.463 13.6385C200.755 13.0452 201.159 12.5845 201.676 12.2564C202.196 11.9283 202.801 11.7642 203.491 11.7642C204.18 11.7642 204.783 11.9283 205.3 12.2564C205.821 12.5845 206.225 13.0452 206.513 13.6385C206.805 14.2318 206.951 14.9261 206.951 15.7216C206.951 16.5104 206.805 17.1998 206.513 17.7898C206.225 18.3797 205.821 18.8388 205.3 19.1669C204.783 19.495 204.18 19.6591 203.491 19.6591ZM203.491 18.6051C204.014 18.6051 204.445 18.4709 204.783 18.2024C205.121 17.9339 205.372 17.581 205.534 17.1435C205.696 16.706 205.778 16.232 205.778 15.7216C205.778 15.2112 205.696 14.7356 205.534 14.2947C205.372 13.8539 205.121 13.4976 204.783 13.2259C204.445 12.9541 204.014 12.8182 203.491 12.8182C202.967 12.8182 202.536 12.9541 202.198 13.2259C201.86 13.4976 201.61 13.8539 201.447 14.2947C201.285 14.7356 201.204 15.2112 201.204 15.7216C201.204 16.232 201.285 16.706 201.447 17.1435C201.61 17.581 201.86 17.9339 202.198 18.2024C202.536 18.4709 202.967 18.6051 203.491 18.6051ZM208.742 19.5V11.8636H209.875V13.017H209.955C210.094 12.6392 210.346 12.3326 210.711 12.0973C211.075 11.862 211.486 11.7443 211.944 11.7443C212.03 11.7443 212.137 11.746 212.267 11.7493C212.396 11.7526 212.494 11.7576 212.56 11.7642V12.9574C212.52 12.9474 212.429 12.9325 212.287 12.9126C212.147 12.8894 212 12.8778 211.844 12.8778C211.473 12.8778 211.141 12.9557 210.85 13.1115C210.561 13.264 210.333 13.4761 210.164 13.7479C209.998 14.0163 209.915 14.3229 209.915 14.6676V19.5H208.742ZM216.602 19.6591C215.966 19.6591 215.404 19.4983 214.917 19.1768C214.429 18.852 214.048 18.3946 213.773 17.8047C213.498 17.2114 213.36 16.5104 213.36 15.7017C213.36 14.8996 213.498 14.2036 213.773 13.6136C214.048 13.0237 214.431 12.5679 214.922 12.2464C215.412 11.925 215.979 11.7642 216.622 11.7642C217.119 11.7642 217.512 11.8471 217.8 12.0128C218.092 12.1752 218.314 12.3608 218.466 12.5696C218.622 12.7751 218.743 12.9441 218.829 13.0767H218.929V9.31818H220.102V19.5H218.968V18.3267H218.829C218.743 18.4659 218.62 18.6416 218.461 18.8537C218.302 19.0625 218.075 19.2498 217.78 19.4155C217.485 19.5779 217.092 19.6591 216.602 19.6591ZM216.761 18.6051C217.232 18.6051 217.629 18.4825 217.954 18.2372C218.279 17.9886 218.526 17.6456 218.695 17.2081C218.864 16.7673 218.949 16.2585 218.949 15.6818C218.949 15.1117 218.866 14.6129 218.7 14.1854C218.534 13.7545 218.289 13.4197 217.964 13.1811C217.639 12.9392 217.238 12.8182 216.761 12.8182C216.264 12.8182 215.85 12.9458 215.518 13.201C215.19 13.4529 214.943 13.7959 214.777 14.2301C214.615 14.661 214.534 15.1449 214.534 15.6818C214.534 16.2254 214.617 16.7192 214.782 17.1634C214.951 17.6042 215.2 17.9555 215.528 18.2173C215.859 18.4759 216.27 18.6051 216.761 18.6051Z" fill="#313131"/>
</g>
<path d="M93.2863 27H91.809L96.0817 15.3636H97.5363L101.809 27H100.332L96.8544 17.2045H96.7635L93.2863 27ZM93.8317 22.4545H99.7863V23.7045H93.8317V22.4545Z" fill="#313131"/>
<mask id="mask1_31_4668" style="mask-type:luminance" maskUnits="userSpaceOnUse" x="214" y="6" width="153" height="25">
<path d="M366.267 6.5H214.883V30.5H366.267V6.5Z" fill="white"/>
</mask>
<g mask="url(#mask1_31_4668)">
<path d="M231.338 21.9091L231.429 19.4091L229.315 20.75L228.77 19.7955L230.997 18.6364L228.77 17.4773L229.315 16.5227L231.429 17.8636L231.338 15.3636H232.429L232.338 17.8636L234.451 16.5227L234.997 17.4773L232.77 18.6364L234.997 19.7955L234.451 20.75L232.338 19.4091L232.429 21.9091H231.338ZM235.9 27.0909C235.62 27.0909 235.38 26.9905 235.179 26.7898C234.978 26.589 234.878 26.3485 234.878 26.0682C234.878 25.7879 234.978 25.5473 235.179 25.3466C235.38 25.1458 235.62 25.0455 235.9 25.0455C236.181 25.0455 236.421 25.1458 236.622 25.3466C236.823 25.5473 236.923 25.7879 236.923 26.0682C236.923 26.2538 236.876 26.4242 236.781 26.5795C236.69 26.7348 236.567 26.8598 236.412 26.9545C236.26 27.0455 236.09 27.0909 235.9 27.0909ZM243.125 18.2727V19.4091H238.602V18.2727H243.125ZM239.92 16.1818H241.261V24.5C241.261 24.8788 241.316 25.1629 241.426 25.3523C241.54 25.5379 241.683 25.6629 241.858 25.7273C242.036 25.7879 242.223 25.8182 242.42 25.8182C242.568 25.8182 242.689 25.8106 242.784 25.7955C242.879 25.7765 242.954 25.7614 243.011 25.75L243.284 26.9545C243.193 26.9886 243.066 27.0227 242.903 27.0568C242.74 27.0947 242.534 27.1136 242.284 27.1136C241.905 27.1136 241.534 27.0322 241.17 26.8693C240.81 26.7064 240.511 26.4583 240.273 26.125C240.038 25.7917 239.92 25.3712 239.92 24.8636V16.1818ZM250.642 23.4318V18.2727H251.983V27H250.642V25.5227H250.551C250.346 25.9659 250.028 26.3428 249.596 26.6534C249.165 26.9602 248.619 27.1136 247.96 27.1136C247.415 27.1136 246.93 26.9943 246.505 26.7557C246.081 26.5133 245.748 26.1496 245.505 25.6648C245.263 25.1761 245.142 24.5606 245.142 23.8182V18.2727H246.483V23.7273C246.483 24.3636 246.661 24.8712 247.017 25.25C247.377 25.6288 247.835 25.8182 248.392 25.8182C248.725 25.8182 249.064 25.733 249.409 25.5625C249.757 25.392 250.049 25.1307 250.284 24.7784C250.523 24.4261 250.642 23.9773 250.642 23.4318ZM255.78 21.75V27H254.439V18.2727H255.734V19.6364H255.848C256.052 19.1932 256.363 18.8371 256.78 18.5682C257.196 18.2955 257.734 18.1591 258.393 18.1591C258.984 18.1591 259.501 18.2803 259.944 18.5227C260.388 18.7614 260.732 19.125 260.978 19.6136C261.225 20.0985 261.348 20.7121 261.348 21.4545V27H260.007V21.5455C260.007 20.8598 259.829 20.3258 259.473 19.9432C259.117 19.5568 258.628 19.3636 258.007 19.3636C257.579 19.3636 257.196 19.4564 256.859 19.642C256.526 19.8277 256.263 20.0985 256.069 20.4545C255.876 20.8106 255.78 21.2424 255.78 21.75ZM265.139 21.75V27H263.798V18.2727H265.094V19.6364H265.207C265.412 19.1932 265.722 18.8371 266.139 18.5682C266.556 18.2955 267.094 18.1591 267.753 18.1591C268.344 18.1591 268.861 18.2803 269.304 18.5227C269.747 18.7614 270.092 19.125 270.338 19.6136C270.584 20.0985 270.707 20.7121 270.707 21.4545V27H269.366V21.5455C269.366 20.8598 269.188 20.3258 268.832 19.9432C268.476 19.5568 267.987 19.3636 267.366 19.3636C266.938 19.3636 266.556 19.4564 266.219 19.642C265.885 19.8277 265.622 20.0985 265.429 20.4545C265.236 20.8106 265.139 21.2424 265.139 21.75ZM276.817 27.1818C275.976 27.1818 275.25 26.9962 274.64 26.625C274.034 26.25 273.567 25.7273 273.237 25.0568C272.911 24.3826 272.748 23.5985 272.748 22.7045C272.748 21.8106 272.911 21.0227 273.237 20.3409C273.567 19.6553 274.025 19.1212 274.612 18.7386C275.203 18.3523 275.892 18.1591 276.68 18.1591C277.135 18.1591 277.584 18.2348 278.027 18.3864C278.47 18.5379 278.873 18.7841 279.237 19.125C279.601 19.4621 279.89 19.9091 280.106 20.4659C280.322 21.0227 280.43 21.7083 280.43 22.5227V23.0909H273.703V21.9318H279.067C279.067 21.4394 278.968 21 278.771 20.6136C278.578 20.2273 278.301 19.9223 277.942 19.6989C277.585 19.4754 277.165 19.3636 276.68 19.3636C276.146 19.3636 275.684 19.4962 275.294 19.7614C274.907 20.0227 274.61 20.3636 274.402 20.7841C274.193 21.2045 274.089 21.6553 274.089 22.1364V22.9091C274.089 23.5682 274.203 24.1269 274.43 24.5852C274.661 25.0398 274.981 25.3864 275.39 25.625C275.799 25.8598 276.275 25.9773 276.817 25.9773C277.169 25.9773 277.487 25.928 277.771 25.8295C278.059 25.7273 278.307 25.5758 278.515 25.375C278.724 25.1705 278.885 24.9167 278.998 24.6136L280.294 24.9773C280.157 25.4167 279.928 25.803 279.606 26.1364C279.284 26.4659 278.887 26.7235 278.413 26.9091C277.94 27.0909 277.407 27.1818 276.817 27.1818ZM283.811 15.3636V27H282.47V15.3636H283.811Z" fill="#313131"/>
</g>
<mask id="mask2_31_4668" style="mask-type:luminance" maskUnits="userSpaceOnUse" x="382" y="6" width="116" height="25">
<path d="M497.517 6.5H382.267V30.5H497.517V6.5Z" fill="white"/>
</mask>
<g mask="url(#mask2_31_4668)">
<path d="M400.403 27.1591C399.653 27.1591 398.984 27.0303 398.397 26.7727C397.814 26.5152 397.35 26.1572 397.005 25.6989C396.664 25.2367 396.479 24.7008 396.448 24.0909H397.88C397.911 24.4659 398.039 24.7898 398.267 25.0625C398.494 25.3314 398.791 25.5398 399.159 25.6875C399.526 25.8352 399.933 25.9091 400.38 25.9091C400.88 25.9091 401.323 25.822 401.71 25.6477C402.096 25.4735 402.399 25.2311 402.619 24.9205C402.839 24.6098 402.948 24.25 402.948 23.8409C402.948 23.4129 402.842 23.036 402.63 22.7102C402.418 22.3807 402.108 22.1231 401.698 21.9375C401.289 21.7519 400.789 21.6591 400.198 21.6591H399.267V20.4091H400.198C400.661 20.4091 401.066 20.3258 401.414 20.1591C401.767 19.9924 402.041 19.7576 402.238 19.4545C402.439 19.1515 402.539 18.7955 402.539 18.3864C402.539 17.9924 402.452 17.6496 402.278 17.358C402.104 17.0663 401.858 16.839 401.539 16.6761C401.225 16.5133 400.854 16.4318 400.426 16.4318C400.024 16.4318 399.645 16.5057 399.289 16.6534C398.937 16.7973 398.649 17.0076 398.426 17.2841C398.202 17.5568 398.081 17.8864 398.062 18.2727H396.698C396.721 17.6629 396.905 17.1288 397.25 16.6705C397.594 16.2083 398.045 15.8485 398.602 15.5909C399.162 15.3333 399.778 15.2045 400.448 15.2045C401.168 15.2045 401.786 15.3504 402.301 15.642C402.816 15.9299 403.212 16.3106 403.488 16.7841C403.765 17.2576 403.903 17.7689 403.903 18.3182C403.903 18.9735 403.731 19.5322 403.386 19.9943C403.045 20.4564 402.581 20.7765 401.994 20.9545V21.0455C402.729 21.1667 403.303 21.4792 403.715 21.983C404.128 22.483 404.335 23.1023 404.335 23.8409C404.335 24.4735 404.162 25.0417 403.818 25.5455C403.477 26.0455 403.011 26.4394 402.42 26.7273C401.829 27.0152 401.157 27.1591 400.403 27.1591ZM410.363 15.2045C410.84 15.2083 411.318 15.2992 411.795 15.4773C412.272 15.6553 412.708 15.9508 413.102 16.3636C413.496 16.7727 413.812 17.3314 414.051 18.0398C414.289 18.7481 414.409 19.6364 414.409 20.7045C414.409 21.7386 414.31 22.6572 414.113 23.4602C413.92 24.2595 413.64 24.9337 413.272 25.483C412.909 26.0322 412.465 26.4489 411.943 26.733C411.424 27.017 410.837 27.1591 410.181 27.1591C409.53 27.1591 408.948 27.0303 408.437 26.7727C407.929 26.5114 407.513 26.1496 407.187 25.6875C406.865 25.2216 406.659 24.6818 406.568 24.0682H407.954C408.079 24.6023 408.327 25.0436 408.698 25.392C409.073 25.7367 409.568 25.9091 410.181 25.9091C411.079 25.9091 411.787 25.517 412.306 24.733C412.829 23.9489 413.09 22.8409 413.09 21.4091H413C412.787 21.7273 412.536 22.0019 412.244 22.233C411.952 22.464 411.628 22.642 411.272 22.767C410.916 22.892 410.537 22.9545 410.136 22.9545C409.469 22.9545 408.858 22.7898 408.301 22.4602C407.748 22.1269 407.304 21.6705 406.971 21.0909C406.642 20.5076 406.477 19.8409 406.477 19.0909C406.477 18.3788 406.636 17.7273 406.954 17.1364C407.276 16.5417 407.727 16.0682 408.306 15.7159C408.89 15.3636 409.575 15.1932 410.363 15.2045ZM410.363 16.4545C409.886 16.4545 409.456 16.5739 409.073 16.8125C408.695 17.0473 408.393 17.3655 408.17 17.767C407.95 18.1648 407.84 18.6061 407.84 19.0909C407.84 19.5758 407.947 20.017 408.159 20.4148C408.375 20.8087 408.668 21.1231 409.039 21.358C409.414 21.589 409.84 21.7045 410.318 21.7045C410.678 21.7045 411.013 21.6345 411.323 21.4943C411.634 21.3504 411.905 21.1553 412.136 20.9091C412.371 20.6591 412.554 20.3769 412.687 20.0625C412.82 19.7443 412.886 19.4129 412.886 19.0682C412.886 18.6136 412.776 18.1875 412.556 17.7898C412.34 17.392 412.041 17.0701 411.659 16.8239C411.28 16.5777 410.848 16.4545 410.363 16.4545ZM417.237 27.0909C416.956 27.0909 416.716 26.9905 416.515 26.7898C416.314 26.589 416.214 26.3485 416.214 26.0682C416.214 25.7879 416.314 25.5473 416.515 25.3466C416.716 25.1458 416.956 25.0455 417.237 25.0455C417.517 25.0455 417.758 25.1458 417.958 25.3466C418.159 25.5473 418.259 25.7879 418.259 26.0682C418.259 26.2538 418.212 26.4242 418.117 26.5795C418.027 26.7348 417.903 26.8598 417.748 26.9545C417.597 27.0455 417.426 27.0909 417.237 27.0909ZM424.045 27.1591C423.378 27.1591 422.778 27.0265 422.244 26.7614C421.71 26.4962 421.282 26.1326 420.96 25.6705C420.638 25.2083 420.462 24.6818 420.431 24.0909H421.795C421.848 24.6174 422.087 25.053 422.511 25.3977C422.939 25.7386 423.45 25.9091 424.045 25.9091C424.522 25.9091 424.947 25.7973 425.318 25.5739C425.693 25.3504 425.986 25.0436 426.198 24.6534C426.414 24.2595 426.522 23.8144 426.522 23.3182C426.522 22.8106 426.411 22.358 426.187 21.9602C425.967 21.5587 425.664 21.2424 425.278 21.0114C424.892 20.7803 424.45 20.6629 423.954 20.6591C423.598 20.6553 423.233 20.7102 422.858 20.8239C422.483 20.9337 422.174 21.0758 421.931 21.25L420.613 21.0909L421.318 15.3636H427.363V16.6136H422.5L422.09 20.0455H422.159C422.397 19.8561 422.697 19.6989 423.056 19.5739C423.416 19.4489 423.791 19.3864 424.181 19.3864C424.893 19.3864 425.528 19.5568 426.085 19.8977C426.645 20.2348 427.085 20.697 427.403 21.2841C427.725 21.8712 427.886 22.5417 427.886 23.2955C427.886 24.0379 427.719 24.7008 427.386 25.2841C427.056 25.8636 426.602 26.322 426.022 26.6591C425.443 26.9924 424.784 27.1591 424.045 27.1591ZM433.87 27.1591C433.09 27.1591 432.401 27.0208 431.802 26.7443C431.207 26.464 430.743 26.0795 430.41 25.5909C430.077 25.0985 429.912 24.5379 429.916 23.9091C429.912 23.4167 430.009 22.9621 430.206 22.5455C430.402 22.125 430.671 21.7746 431.012 21.4943C431.357 21.2102 431.742 21.0303 432.166 20.9545V20.8864C431.609 20.7424 431.166 20.4299 430.836 19.9489C430.507 19.464 430.344 18.9129 430.348 18.2955C430.344 17.7045 430.493 17.1761 430.796 16.7102C431.099 16.2443 431.516 15.8769 432.046 15.608C432.581 15.339 433.188 15.2045 433.87 15.2045C434.545 15.2045 435.147 15.339 435.677 15.608C436.207 15.8769 436.624 16.2443 436.927 16.7102C437.234 17.1761 437.389 17.7045 437.393 18.2955C437.389 18.9129 437.221 19.464 436.887 19.9489C436.558 20.4299 436.12 20.7424 435.575 20.8864V20.9545C435.995 21.0303 436.374 21.2102 436.711 21.4943C437.048 21.7746 437.317 22.125 437.518 22.5455C437.719 22.9621 437.821 23.4167 437.825 23.9091C437.821 24.5379 437.651 25.0985 437.313 25.5909C436.98 26.0795 436.516 26.464 435.921 26.7443C435.331 27.0208 434.647 27.1591 433.87 27.1591ZM433.87 25.9091C434.397 25.9091 434.851 25.8239 435.234 25.6534C435.617 25.483 435.912 25.2424 436.12 24.9318C436.329 24.6212 436.435 24.2576 436.438 23.8409C436.435 23.4015 436.321 23.0133 436.098 22.6761C435.874 22.339 435.569 22.0739 435.183 21.8807C434.8 21.6875 434.363 21.5909 433.87 21.5909C433.374 21.5909 432.931 21.6875 432.541 21.8807C432.154 22.0739 431.849 22.339 431.626 22.6761C431.406 23.0133 431.298 23.4015 431.302 23.8409C431.298 24.2576 431.399 24.6212 431.603 24.9318C431.812 25.2424 432.109 25.483 432.495 25.6534C432.882 25.8239 433.34 25.9091 433.87 25.9091ZM433.87 20.3864C434.287 20.3864 434.656 20.303 434.978 20.1364C435.304 19.9697 435.56 19.7367 435.745 19.4375C435.931 19.1383 436.026 18.7879 436.029 18.3864C436.026 17.9924 435.933 17.6496 435.751 17.358C435.569 17.0625 435.317 16.8352 434.995 16.6761C434.673 16.5133 434.298 16.4318 433.87 16.4318C433.435 16.4318 433.054 16.5133 432.728 16.6761C432.402 16.8352 432.151 17.0625 431.973 17.358C431.795 17.6496 431.707 17.9924 431.711 18.3864C431.707 18.7879 431.796 19.1383 431.978 19.4375C432.164 19.7367 432.42 19.9697 432.745 20.1364C433.071 20.303 433.446 20.3864 433.87 20.3864ZM440.643 27.0909C440.363 27.0909 440.122 26.9905 439.921 26.7898C439.721 26.589 439.62 26.3485 439.62 26.0682C439.62 25.7879 439.721 25.5473 439.921 25.3466C440.122 25.1458 440.363 25.0455 440.643 25.0455C440.923 25.0455 441.164 25.1458 441.365 25.3466C441.565 25.5473 441.666 25.7879 441.666 26.0682C441.666 26.2538 441.618 26.4242 441.524 26.5795C441.433 26.7348 441.31 26.8598 441.154 26.9545C441.003 27.0455 440.832 27.0909 440.643 27.0909ZM446.75 15.3636V27H445.34V16.8409H445.272L442.431 18.7273V17.2955L445.34 15.3636H446.75ZM450.46 27L455.664 16.7045V16.6136H449.664V15.3636H457.119V16.6818L451.937 27H450.46ZM459.237 27V25.9773L463.078 21.7727C463.528 21.2803 463.9 20.8523 464.191 20.4886C464.483 20.1212 464.699 19.7765 464.839 19.4545C464.983 19.1288 465.055 18.7879 465.055 18.4318C465.055 18.0227 464.956 17.6686 464.759 17.3693C464.566 17.0701 464.301 16.839 463.964 16.6761C463.627 16.5133 463.248 16.4318 462.828 16.4318C462.381 16.4318 461.991 16.5246 461.657 16.7102C461.328 16.892 461.072 17.1477 460.89 17.4773C460.712 17.8068 460.623 18.1932 460.623 18.6364H459.282C459.282 17.9545 459.439 17.3561 459.754 16.8409C460.068 16.3258 460.496 15.9242 461.038 15.6364C461.583 15.3485 462.195 15.2045 462.873 15.2045C463.555 15.2045 464.159 15.3485 464.686 15.6364C465.212 15.9242 465.625 16.3125 465.924 16.8011C466.224 17.2898 466.373 17.8333 466.373 18.4318C466.373 18.8598 466.295 19.2784 466.14 19.6875C465.989 20.0928 465.724 20.5455 465.345 21.0455C464.97 21.5417 464.449 22.1477 463.782 22.8636L461.169 25.6591V25.75H466.578V27H459.237ZM469.924 27.0909C469.644 27.0909 469.403 26.9905 469.203 26.7898C469.002 26.589 468.902 26.3485 468.902 26.0682C468.902 25.7879 469.002 25.5473 469.203 25.3466C469.403 25.1458 469.644 25.0455 469.924 25.0455C470.205 25.0455 470.445 25.1458 470.646 25.3466C470.847 25.5473 470.947 25.7879 470.947 26.0682C470.947 26.2538 470.9 26.4242 470.805 26.5795C470.714 26.7348 470.591 26.8598 470.436 26.9545C470.284 27.0455 470.114 27.0909 469.924 27.0909ZM476.733 27.1591C476.066 27.1591 475.465 27.0265 474.931 26.7614C474.397 26.4962 473.969 26.1326 473.647 25.6705C473.325 25.2083 473.149 24.6818 473.119 24.0909H474.483C474.536 24.6174 474.774 25.053 475.198 25.3977C475.626 25.7386 476.138 25.9091 476.733 25.9091C477.21 25.9091 477.634 25.7973 478.005 25.5739C478.38 25.3504 478.674 25.0436 478.886 24.6534C479.102 24.2595 479.21 23.8144 479.21 23.3182C479.21 22.8106 479.098 22.358 478.875 21.9602C478.655 21.5587 478.352 21.2424 477.965 21.0114C477.579 20.7803 477.138 20.6629 476.642 20.6591C476.286 20.6553 475.92 20.7102 475.545 20.8239C475.17 20.9337 474.861 21.0758 474.619 21.25L473.301 21.0909L474.005 15.3636H480.051V16.6136H475.187L474.778 20.0455H474.846C475.085 19.8561 475.384 19.6989 475.744 19.5739C476.104 19.4489 476.479 19.3864 476.869 19.3864C477.581 19.3864 478.215 19.5568 478.772 19.8977C479.333 20.2348 479.772 20.697 480.09 21.2841C480.412 21.8712 480.573 22.5417 480.573 23.2955C480.573 24.0379 480.407 24.7008 480.073 25.2841C479.744 25.8636 479.289 26.322 478.71 26.6591C478.13 26.9924 477.471 27.1591 476.733 27.1591ZM486.467 27.1591C485.8 27.1591 485.2 27.0265 484.666 26.7614C484.132 26.4962 483.704 26.1326 483.382 25.6705C483.06 25.2083 482.884 24.6818 482.853 24.0909H484.217C484.27 24.6174 484.509 25.053 484.933 25.3977C485.361 25.7386 485.872 25.9091 486.467 25.9091C486.944 25.9091 487.368 25.7973 487.74 25.5739C488.115 25.3504 488.408 25.0436 488.62 24.6534C488.836 24.2595 488.944 23.8144 488.944 23.3182C488.944 22.8106 488.832 22.358 488.609 21.9602C488.389 21.5587 488.086 21.2424 487.7 21.0114C487.313 20.7803 486.872 20.6629 486.376 20.6591C486.02 20.6553 485.654 20.7102 485.279 20.8239C484.904 20.9337 484.596 21.0758 484.353 21.25L483.035 21.0909L483.74 15.3636H489.785V16.6136H484.921L484.512 20.0455H484.581C484.819 19.8561 485.118 19.6989 485.478 19.5739C485.838 19.4489 486.213 19.3864 486.603 19.3864C487.315 19.3864 487.95 19.5568 488.507 19.8977C489.067 20.2348 489.507 20.697 489.825 21.2841C490.147 21.8712 490.308 22.5417 490.308 23.2955C490.308 24.0379 490.141 24.7008 489.808 25.2841C489.478 25.8636 489.024 26.322 488.444 26.6591C487.865 26.9924 487.206 27.1591 486.467 27.1591Z" fill="#313131"/>
</g>
<mask id="mask3_31_4668" style="mask-type:luminance" maskUnits="userSpaceOnUse" x="586" y="6" width="41" height="25">
<path d="M626.833 6.5H586.833V30.5H626.833V6.5Z" fill="white"/>
</mask>
<g mask="url(#mask3_31_4668)">
<path d="M605.906 10.2341V12.1505L609.391 8.84041L605.906 5.53027V7.44667H603.042C602.412 7.44692 601.789 7.58487 601.217 7.85088C600.645 8.11689 600.138 8.50454 599.732 8.98675L594.983 14.9938C594.695 15.3564 594.329 15.6494 593.912 15.8509C593.495 16.0524 593.038 16.1572 592.575 16.1575H590.575L588.833 18.945H593.499C594.106 18.9453 594.706 18.8044 595.25 18.5336C595.794 18.2627 596.268 17.8692 596.634 17.384L601.046 11.5164C601.366 11.1162 601.772 10.7932 602.234 10.5713C602.696 10.3493 603.202 10.2341 603.715 10.2341H605.906Z" fill="#92979B"/>
<path d="M616.882 19.1197C616.337 19.1219 615.8 19.252 615.314 19.4995C615.271 17.9146 614.661 16.3977 613.594 15.2247C612.527 14.0518 611.075 13.3006 609.501 13.1077C607.928 12.9149 606.337 13.2933 605.019 14.1741C603.7 15.0548 602.742 16.3795 602.318 17.9072C601.858 17.5309 601.301 17.293 600.711 17.2211C600.121 17.1492 599.523 17.2464 598.986 17.5012C598.45 17.756 597.996 18.1581 597.679 18.6605C597.362 19.163 597.195 19.7451 597.196 20.3392C597.196 20.4557 597.203 20.572 597.216 20.6877C596.523 20.708 595.867 21.0028 595.391 21.5073C594.915 22.0117 594.66 22.6845 594.68 23.3776C594.7 24.0707 594.995 24.7273 595.499 25.203C596.004 25.6787 596.677 25.9345 597.37 25.9142C598.763 25.9142 615.45 26.0884 616.882 26.0884C617.806 26.0884 618.692 25.7213 619.346 25.0679C619.999 24.4144 620.366 23.5282 620.366 22.6041C620.366 21.68 619.999 20.7937 619.346 20.1403C618.692 19.4868 617.806 19.1197 616.882 19.1197Z" fill="#92979B"/>
</g>
<path d="M639.833 27H636.243V15.3636H639.993C641.121 15.3636 642.087 15.5966 642.89 16.0625C643.693 16.5246 644.309 17.1894 644.737 18.0568C645.165 18.9205 645.379 19.9545 645.379 21.1591C645.379 22.3712 645.163 23.4148 644.731 24.2898C644.299 25.161 643.671 25.8314 642.845 26.3011C642.019 26.767 641.015 27 639.833 27ZM637.652 25.75H639.743C640.705 25.75 641.502 25.5644 642.135 25.1932C642.767 24.822 643.239 24.2936 643.549 23.608C643.86 22.9223 644.015 22.1061 644.015 21.1591C644.015 20.2197 643.862 19.411 643.555 18.733C643.248 18.0511 642.79 17.5284 642.18 17.1648C641.57 16.7973 640.811 16.6136 639.902 16.6136H637.652V25.75ZM656.97 15.3636V27H655.606L649.265 17.8636H649.152V27H647.743V15.3636H649.106L655.47 24.5227H655.583V15.3636H656.97ZM666.153 18.2727C666.085 17.697 665.808 17.25 665.324 16.9318C664.839 16.6136 664.244 16.4545 663.539 16.4545C663.024 16.4545 662.574 16.5379 662.187 16.7045C661.805 16.8712 661.505 17.1004 661.289 17.392C661.077 17.6837 660.971 18.0152 660.971 18.3864C660.971 18.697 661.045 18.964 661.193 19.1875C661.344 19.4072 661.538 19.5909 661.772 19.7386C662.007 19.8826 662.253 20.0019 662.511 20.0966C662.769 20.1875 663.005 20.2614 663.221 20.3182L664.403 20.6364C664.706 20.7159 665.043 20.8258 665.414 20.9659C665.789 21.1061 666.147 21.2973 666.488 21.5398C666.833 21.7784 667.117 22.0852 667.341 22.4602C667.564 22.8352 667.676 23.2955 667.676 23.8409C667.676 24.4697 667.511 25.0379 667.182 25.5455C666.856 26.053 666.378 26.4564 665.75 26.7557C665.125 27.0549 664.365 27.2045 663.471 27.2045C662.638 27.2045 661.916 27.0701 661.307 26.8011C660.7 26.5322 660.223 26.1572 659.875 25.6761C659.53 25.1951 659.335 24.6364 659.289 24H660.744C660.782 24.4394 660.93 24.803 661.187 25.0909C661.449 25.375 661.778 25.5871 662.176 25.7273C662.577 25.8636 663.009 25.9318 663.471 25.9318C664.009 25.9318 664.492 25.8447 664.92 25.6705C665.348 25.4924 665.687 25.2462 665.937 24.9318C666.187 24.6136 666.312 24.2424 666.312 23.8182C666.312 23.4318 666.204 23.1174 665.988 22.875C665.772 22.6326 665.488 22.4356 665.136 22.2841C664.784 22.1326 664.403 22 663.994 21.8864L662.562 21.4773C661.653 21.2159 660.933 20.8428 660.403 20.358C659.873 19.8731 659.608 19.2386 659.608 18.4545C659.608 17.803 659.784 17.2348 660.136 16.75C660.492 16.2614 660.969 15.8826 661.568 15.6136C662.17 15.3409 662.842 15.2045 663.585 15.2045C664.335 15.2045 665.002 15.339 665.585 15.608C666.168 15.8731 666.63 16.2367 666.971 16.6989C667.316 17.161 667.498 17.6856 667.517 18.2727H666.153ZM677.856 27.1818C677.068 27.1818 676.377 26.9943 675.782 26.6193C675.191 26.2443 674.729 25.7197 674.396 25.0455C674.066 24.3712 673.902 23.5833 673.902 22.6818C673.902 21.7727 674.066 20.9792 674.396 20.3011C674.729 19.6231 675.191 19.0966 675.782 18.7216C676.377 18.3466 677.068 18.1591 677.856 18.1591C678.644 18.1591 679.333 18.3466 679.924 18.7216C680.519 19.0966 680.981 19.6231 681.311 20.3011C681.644 20.9792 681.811 21.7727 681.811 22.6818C681.811 23.5833 681.644 24.3712 681.311 25.0455C680.981 25.7197 680.519 26.2443 679.924 26.6193C679.333 26.9943 678.644 27.1818 677.856 27.1818ZM677.856 25.9773C678.455 25.9773 678.947 25.8239 679.333 25.517C679.72 25.2102 680.006 24.8068 680.191 24.3068C680.377 23.8068 680.47 23.2652 680.47 22.6818C680.47 22.0985 680.377 21.5549 680.191 21.0511C680.006 20.5473 679.72 20.1402 679.333 19.8295C678.947 19.5189 678.455 19.3636 677.856 19.3636C677.258 19.3636 676.765 19.5189 676.379 19.8295C675.993 20.1402 675.707 20.5473 675.521 21.0511C675.335 21.5549 675.243 22.0985 675.243 22.6818C675.243 23.2652 675.335 23.8068 675.521 24.3068C675.707 24.8068 675.993 25.2102 676.379 25.517C676.765 25.8239 677.258 25.9773 677.856 25.9773ZM685.199 21.75V27H683.858V18.2727H685.153V19.6364H685.267C685.471 19.1932 685.782 18.8371 686.199 18.5682C686.615 18.2955 687.153 18.1591 687.812 18.1591C688.403 18.1591 688.92 18.2803 689.363 18.5227C689.807 18.7614 690.151 19.125 690.397 19.6136C690.644 20.0985 690.767 20.7121 690.767 21.4545V27H689.426V21.5455C689.426 20.8598 689.248 20.3258 688.892 19.9432C688.536 19.5568 688.047 19.3636 687.426 19.3636C686.998 19.3636 686.615 19.4564 686.278 19.642C685.945 19.8277 685.682 20.0985 685.488 20.4545C685.295 20.8106 685.199 21.2424 685.199 21.75ZM694.558 15.3636V27H693.217V15.3636H694.558ZM697.878 30.2727C697.65 30.2727 697.448 30.2538 697.27 30.2159C697.092 30.1818 696.968 30.1477 696.9 30.1136L697.241 28.9318C697.567 29.0152 697.855 29.0455 698.105 29.0227C698.355 29 698.576 28.8883 698.77 28.6875C698.967 28.4905 699.146 28.1705 699.309 27.7273L699.559 27.0455L696.332 18.2727H697.787L700.196 25.2273H700.287L702.696 18.2727H704.15L700.446 28.2727C700.279 28.7235 700.073 29.0966 699.826 29.392C699.58 29.6913 699.294 29.9129 698.968 30.0568C698.646 30.2008 698.283 30.2727 697.878 30.2727Z" fill="#313131"/>
<path d="M806.286 27H804.809L809.082 15.3636H810.536L814.809 27H813.332L809.854 17.2045H809.764L806.286 27ZM806.832 22.4545H812.786V23.7045H806.832V22.4545ZM821.94 23.4318V18.2727H823.281V27H821.94V25.5227H821.849C821.644 25.9659 821.326 26.3428 820.894 26.6534C820.462 26.9602 819.917 27.1136 819.258 27.1136C818.712 27.1136 818.228 26.9943 817.803 26.7557C817.379 26.5133 817.046 26.1496 816.803 25.6648C816.561 25.1761 816.44 24.5606 816.44 23.8182V18.2727H817.781V23.7273C817.781 24.3636 817.959 24.8712 818.315 25.25C818.675 25.6288 819.133 25.8182 819.69 25.8182C820.023 25.8182 820.362 25.733 820.707 25.5625C821.055 25.392 821.347 25.1307 821.582 24.7784C821.82 24.4261 821.94 23.9773 821.94 23.4318ZM829.532 18.2727V19.4091H825.009V18.2727H829.532ZM826.327 16.1818H827.668V24.5C827.668 24.8788 827.723 25.1629 827.833 25.3523C827.947 25.5379 828.091 25.6629 828.265 25.7273C828.443 25.7879 828.63 25.8182 828.827 25.8182C828.975 25.8182 829.096 25.8106 829.191 25.7955C829.286 25.7765 829.362 25.7614 829.418 25.75L829.691 26.9545C829.6 26.9886 829.473 27.0227 829.31 27.0568C829.148 27.0947 828.941 27.1136 828.691 27.1136C828.312 27.1136 827.941 27.0322 827.577 26.8693C827.218 26.7064 826.918 26.4583 826.68 26.125C826.445 25.7917 826.327 25.3712 826.327 24.8636V16.1818ZM835.001 27.1818C834.213 27.1818 833.522 26.9943 832.927 26.6193C832.336 26.2443 831.874 25.7197 831.541 25.0455C831.211 24.3712 831.046 23.5833 831.046 22.6818C831.046 21.7727 831.211 20.9792 831.541 20.3011C831.874 19.6231 832.336 19.0966 832.927 18.7216C833.522 18.3466 834.213 18.1591 835.001 18.1591C835.789 18.1591 836.478 18.3466 837.069 18.7216C837.664 19.0966 838.126 19.6231 838.455 20.3011C838.789 20.9792 838.955 21.7727 838.955 22.6818C838.955 23.5833 838.789 24.3712 838.455 25.0455C838.126 25.7197 837.664 26.2443 837.069 26.6193C836.478 26.9943 835.789 27.1818 835.001 27.1818ZM835.001 25.9773C835.599 25.9773 836.092 25.8239 836.478 25.517C836.864 25.2102 837.15 24.8068 837.336 24.3068C837.522 23.8068 837.614 23.2652 837.614 22.6818C837.614 22.0985 837.522 21.5549 837.336 21.0511C837.15 20.5473 836.864 20.1402 836.478 19.8295C836.092 19.5189 835.599 19.3636 835.001 19.3636C834.402 19.3636 833.91 19.5189 833.523 19.8295C833.137 20.1402 832.851 20.5473 832.666 21.0511C832.48 21.5549 832.387 22.0985 832.387 22.6818C832.387 23.2652 832.48 23.8068 832.666 24.3068C832.851 24.8068 833.137 25.2102 833.523 25.517C833.91 25.8239 834.402 25.9773 835.001 25.9773Z" fill="#313131"/>
<mask id="mask4_31_4668" style="mask-type:luminance" maskUnits="userSpaceOnUse" x="1012" y="8" width="42" height="22">
<path d="M1053.07 8.5H1012.18V29.5H1053.07V8.5Z" fill="white"/>
<path d="M1038.07 8.5H1037.07V9.5H1038.07V8.5Z" fill="white"/>
</mask>
<g mask="url(#mask4_31_4668)">
<path d="M1013.42 27.5V17.3182H1019.56V18.4119H1014.65V21.8523H1019.24V22.946H1014.65V26.4062H1019.64V27.5H1013.42ZM1024.51 27.6591C1023.87 27.6591 1023.31 27.4983 1022.82 27.1768C1022.34 26.852 1021.95 26.3946 1021.68 25.8047C1021.4 25.2114 1021.27 24.5104 1021.27 23.7017C1021.27 22.8996 1021.4 22.2036 1021.68 21.6136C1021.95 21.0237 1022.34 20.5679 1022.83 20.2464C1023.32 19.925 1023.89 19.7642 1024.53 19.7642C1025.03 19.7642 1025.42 19.8471 1025.71 20.0128C1026 20.1752 1026.22 20.3608 1026.37 20.5696C1026.53 20.7751 1026.65 20.9441 1026.74 21.0767H1026.83V17.3182H1028.01V27.5H1026.87V26.3267H1026.74C1026.65 26.4659 1026.53 26.6416 1026.37 26.8537C1026.21 27.0625 1025.98 27.2498 1025.69 27.4155C1025.39 27.5779 1025 27.6591 1024.51 27.6591ZM1024.67 26.6051C1025.14 26.6051 1025.54 26.4825 1025.86 26.2372C1026.19 25.9886 1026.43 25.6456 1026.6 25.2081C1026.77 24.7673 1026.85 24.2585 1026.85 23.6818C1026.85 23.1117 1026.77 22.6129 1026.61 22.1854C1026.44 21.7545 1026.2 21.4197 1025.87 21.1811C1025.55 20.9392 1025.14 20.8182 1024.67 20.8182C1024.17 20.8182 1023.76 20.9458 1023.42 21.201C1023.1 21.4529 1022.85 21.7959 1022.68 22.2301C1022.52 22.661 1022.44 23.1449 1022.44 23.6818C1022.44 24.2254 1022.52 24.7192 1022.69 25.1634C1022.86 25.6042 1023.11 25.9555 1023.43 26.2173C1023.77 26.4759 1024.18 26.6051 1024.67 26.6051ZM1030.32 27.5V19.8636H1031.49V27.5H1030.32ZM1030.92 18.5909C1030.69 18.5909 1030.49 18.513 1030.32 18.3572C1030.16 18.2015 1030.08 18.0142 1030.08 17.7955C1030.08 17.5767 1030.16 17.3894 1030.32 17.2337C1030.49 17.0779 1030.69 17 1030.92 17C1031.15 17 1031.34 17.0779 1031.5 17.2337C1031.67 17.3894 1031.75 17.5767 1031.75 17.7955C1031.75 18.0142 1031.67 18.2015 1031.5 18.3572C1031.34 18.513 1031.15 18.5909 1030.92 18.5909ZM1036.96 19.8636V20.858H1033.01V19.8636H1036.96ZM1034.16 18.0341H1035.33V25.3125C1035.33 25.6439 1035.38 25.8925 1035.48 26.0582C1035.58 26.2206 1035.7 26.33 1035.85 26.3864C1036.01 26.4394 1036.17 26.4659 1036.35 26.4659C1036.48 26.4659 1036.58 26.4593 1036.66 26.446C1036.75 26.4295 1036.81 26.4162 1036.86 26.4062L1037.1 27.4602C1037.02 27.4901 1036.91 27.5199 1036.77 27.5497C1036.63 27.5829 1036.45 27.5994 1036.23 27.5994C1035.9 27.5994 1035.57 27.5282 1035.25 27.3857C1034.94 27.2431 1034.68 27.026 1034.47 26.7344C1034.26 26.4427 1034.16 26.0748 1034.16 25.6307V18.0341Z" fill="#0051C3"/>
<mask id="mask5_31_4668" style="mask-type:luminance" maskUnits="userSpaceOnUse" x="1037" y="11" width="17" height="17">
<path d="M1053.07 11.7002H1037.07V27.7002H1053.07V11.7002Z" fill="white"/>
</mask>
<g mask="url(#mask5_31_4668)">
<path d="M1041.56 13.5503L1042.41 13.1973L1048.56 19.3473V20.0543L1042.41 26.2043L1041.56 25.8503V13.5503Z" fill="#0051C3"/>
</g>
</g>
</svg>
